# xmcd CD database file
#
# Track frame offsets:
#	150
#	23743
#	41435
#	58699
#	77272
#	102079
#	125426
#	146772
#	160242
#	179714
#	208760
#	225680
#	250524
#	268915
#	283024
#
# Disc length: 4031 seconds
#
# Revision: 0
# Processed by: cddbd v1.4PL0 Copyright (c) Steve Scherf et al.
# Submitted via: CDex 1.50beta9
#
DISCID=d00fbd0f
DTITLE=Oscar D'León - La Leyenda Viva Vol 2 La Verdadera Historia
DYEAR=1996
DGENRE=Salsa
TTITLE0=Baile del Suavecito 
TTITLE1=Taboga
TTITLE2=Sigue Tu Camino 
TTITLE3=Juancito Trucupey 
TTITLE4=Mata Siguaraya 
TTITLE5=Baile del Suavecito 
TTITLE6=Con un Amor Se Borra Otro Amor 
TTITLE7=Malo 
TTITLE8=De Ti Enamorado 
TTITLE9=Yo Quisiera Saber 
TTITLE10=Pa' Salinas 
TTITLE11=Bravo de Verdad 
TTITLE12=Esposa
TTITLE13=Juramento
TTITLE14=Divina Niña 
EXTD=YEAR: 1996
EXTT0=
EXTT1=
EXTT2=
EXTT3=
EXTT4=
EXTT5=
EXTT6=
EXTT7=
EXTT8=
EXTT9=
EXTT10=
EXTT11=
EXTT12=
EXTT13=
EXTT14=
PLAYORDER=
